<?xml version="1.0" standalone="no"?>
<!DOCTYPE svg PUBLIC "-//W3C//DTD SVG 20010904//EN"
 "http://www.w3.org/TR/2001/REC-SVG-20010904/DTD/svg10.dtd">
<svg version="1.0" xmlns="http://www.w3.org/2000/svg"
 width="540.000000pt" height="557.000000pt" viewBox="0 0 540.000000 557.000000"
 preserveAspectRatio="xMidYMid meet">

<g transform="translate(0.000000,557.000000) scale(0.100000,-0.100000)"
fill="#000000" stroke="none">
<path d="M3670 5559 c-94 -10 -320 -52 -389 -72 -36 -11 -58 -11 -135 1 -138
23 -496 22 -608 -1 -118 -24 -227 -60 -325 -108 l-81 -40 -99 30 c-264 82
-516 122 -766 121 -346 0 -590 -70 -804 -229 -222 -166 -357 -400 -426 -736
-19 -96 -22 -141 -22 -360 0 -230 2 -263 28 -410 101 -568 269 -1172 439
-1570 182 -429 382 -673 608 -743 75 -23 198 -22 275 3 33 11 88 38 122 61
l61 41 29 -28 c160 -158 560 -218 838 -124 39 13 71 22 73 20 2 -1 7 -101 13
-221 15 -363 34 -496 98 -686 56 -165 103 -250 186 -333 175 -176 385 -212
722 -125 492 127 705 475 753 1227 6 92 14 196 16 231 l6 62 108 0 c133 0 301
22 418 56 175 49 390 177 491 290 152 172 131 382 -48 475 -63 32 -160 36
-312 11 -162 -27 -229 -34 -229 -26 0 4 22 46 50 94 80 140 254 503 316 660
247 627 351 1207 278 1557 -35 169 -92 261 -271 434 -214 206 -457 334 -764
403 -198 44 -433 57 -649 35z m543 -164 c187 -34 370 -102 520 -192 157 -95
342 -268 413 -389 126 -214 81 -740 -115 -1332 -113 -342 -303 -753 -485
-1052 -105 -172 -105 -168 -21 -192 64 -18 275 -13 405 11 63 11 144 21 179
21 58 0 65 -2 97 -34 81 -81 22 -196 -166 -323 -148 -100 -299 -150 -525 -174
-110 -11 -253 -7 -313 11 -39 11 -33 33 -67 -260 -38 -330 -91 -693 -116 -790
-34 -138 -89 -241 -173 -324 -79 -79 -153 -123 -283 -167 -173 -58 -348 -75
-468 -44 -100 26 -165 64 -241 139 -58 58 -80 90 -122 176 -56 115 -74 191
-92 380 -13 129 -28 696 -22 777 2 29 1 53 -2 53 -3 0 -27 -16 -53 -37 -61
-46 -169 -97 -253 -120 -87 -23 -296 -23 -399 1 -106 24 -185 62 -230 111 -85
92 -56 186 73 240 21 9 101 32 178 51 77 19 157 43 178 54 49 25 159 158 141
169 -7 5 -39 11 -71 14 -32 4 -88 18 -126 33 -38 14 -78 26 -88 27 -21 2 -133
-117 -364 -386 -188 -219 -263 -265 -410 -255 -93 7 -159 43 -253 137 -93 94
-160 194 -249 376 -203 414 -407 1119 -505 1743 -79 501 19 948 263 1205 313
328 890 387 1600 162 l109 -35 77 44 c91 52 229 99 350 121 150 26 393 18 572
-18 53 -11 68 -11 120 5 85 25 233 57 349 73 131 19 464 13 588 -10z"/>
<path d="M3626 5245 c-54 -8 -105 -16 -113 -19 -9 -4 17 -22 64 -47 179 -94
350 -229 491 -389 153 -173 300 -419 369 -615 24 -71 27 -93 26 -195 -1 -64
-11 -183 -23 -265 -27 -183 -29 -332 -5 -520 37 -291 19 -491 -60 -663 -33
-70 -39 -112 -15 -97 13 8 93 144 176 297 357 663 580 1484 510 1879 -18 102
-43 146 -139 247 -186 194 -411 317 -687 374 -127 26 -451 33 -594 13z"/>
<path d="M2586 5184 c-452 -89 -732 -452 -831 -1074 -8 -52 -15 -107 -15 -121
l0 -25 68 32 c218 103 447 132 594 75 83 -32 159 -106 203 -194 68 -141 118
-529 96 -755 -15 -162 -48 -284 -125 -465 -50 -119 -136 -346 -136 -362 0 -1
26 -5 58 -7 112 -11 199 -76 251 -188 l25 -55 2 -450 c3 -633 22 -870 83
-1016 58 -138 142 -221 259 -255 113 -33 335 0 487 71 164 78 242 206 285 464
43 255 116 854 129 1058 15 214 60 303 182 357 l49 21 -70 94 c-39 51 -94 141
-123 200 -29 58 -84 161 -121 229 -152 275 -256 526 -292 703 -11 56 -15 115
-12 192 3 95 8 121 30 169 53 113 159 195 298 229 31 8 112 14 187 14 73 0
133 3 133 7 0 19 -77 183 -124 262 -266 451 -666 731 -1139 795 -107 15 -347
12 -431 -5z"/>
<path d="M1038 5175 c-408 -67 -639 -314 -704 -756 -24 -166 -16 -435 20 -634
134 -747 376 -1488 594 -1820 54 -81 143 -175 191 -200 46 -23 108 -22 156 3
47 24 86 64 259 265 71 82 159 182 198 223 l69 75 -52 57 c-106 115 -174 249
-205 401 -18 91 -16 205 6 426 8 72 9 212 5 405 -5 237 -3 321 9 429 47 397
183 744 375 953 28 31 48 59 43 62 -20 12 -287 77 -397 97 -157 27 -443 35
-567 14z"/>
<path d="M4038 3960 c-118 -20 -187 -61 -226 -134 -24 -47 -28 -188 -7 -283
40 -177 128 -384 291 -683 43 -80 90 -169 103 -198 14 -28 28 -52 31 -52 4 0
17 30 30 68 33 97 38 288 14 492 -24 200 -22 385 5 563 12 76 21 157 21 181
l0 43 -61 7 c-76 7 -139 6 -201 -4z m92 -73 c81 -41 -33 -173 -133 -153 -16 3
-46 18 -64 32 -41 31 -42 67 -2 97 47 35 152 48 199 24z"/>
<path d="M2090 3925 c-108 -24 -232 -77 -326 -138 l-30 -20 4 -226 c3 -135 0
-274 -8 -346 -30 -310 -23 -394 49 -540 89 -181 258 -305 447 -330 l51 -6 33
98 c18 54 51 141 72 193 22 52 55 132 74 177 74 180 101 368 84 583 -10 129
-37 306 -59 385 -18 70 -64 130 -117 155 -60 30 -180 36 -274 15z m276 -93
c62 -32 71 -72 27 -114 -40 -36 -66 -48 -110 -48 -74 0 -153 67 -153 130 0 61
143 80 236 32z"/>
<path d="M4286 2132 c-27 -9 -58 -28 -68 -42 -25 -34 -44 -145 -29 -164 21
-25 136 -39 255 -32 237 14 427 77 558 187 l31 25 -104 -17 c-119 -21 -340
-25 -421 -8 -29 6 -80 24 -112 40 -33 16 -60 29 -60 29 -1 -1 -23 -9 -50 -18z"/>
<path d="M2445 2112 c-11 -9 -45 -46 -75 -82 -143 -171 -189 -199 -406 -250
-74 -18 -136 -36 -139 -40 -15 -23 119 -59 250 -66 192 -11 330 39 456 165 81
82 95 114 79 171 -13 46 -36 78 -73 100 -39 24 -66 25 -92 2z"/>
</g>
</svg>
