<?xml version="1.0" standalone="no"?>
<!DOCTYPE svg PUBLIC "-//W3C//DTD SVG 20010904//EN"
 "http://www.w3.org/TR/2001/REC-SVG-20010904/DTD/svg10.dtd">
<svg version="1.0" xmlns="http://www.w3.org/2000/svg"
 width="800.000000pt" height="800.000000pt" viewBox="0 0 800.000000 800.000000"
 preserveAspectRatio="xMidYMid meet">

<g transform="translate(0.000000,800.000000) scale(0.100000,-0.100000)"
fill="#000000" stroke="none">
<path d="M3820 7784 c-77 -16 -166 -47 -233 -80 -58 -30 -2466 -1456 -2523
-1495 -67 -46 -153 -129 -206 -199 -65 -85 -142 -243 -170 -350 l-23 -85 -3
-1525 c-2 -1070 0 -1550 8 -1609 32 -242 168 -484 352 -624 62 -47 464 -287
2023 -1210 121 -71 279 -165 350 -207 236 -141 329 -179 492 -201 158 -21 335
8 488 80 95 45 2497 1466 2570 1521 179 134 308 336 361 565 18 76 19 156 19
1625 0 1229 -3 1558 -13 1610 -47 233 -161 428 -331 565 -36 29 -232 152 -436
272 -1693 1004 -2130 1261 -2198 1291 -153 66 -372 90 -527 56z m300 -158
c122 -22 196 -58 565 -276 1466 -868 2135 -1266 2165 -1288 140 -105 266 -300
296 -457 l7 -37 -59 60 c-41 42 -71 63 -99 71 -65 18 -148 13 -217 -12 -38
-14 -315 -178 -693 -411 -346 -214 -890 -549 -1208 -745 -318 -196 -617 -385
-665 -422 -146 -110 -235 -234 -279 -389 -17 -62 -18 -142 -18 -1560 0 -1606
-2 -1546 50 -1650 26 -50 74 -99 120 -123 26 -13 28 -16 12 -23 -10 -3 -73 -4
-140 -1 -123 5 -207 25 -298 72 -29 16 -1112 656 -2148 1270 -178 106 -351
212 -384 236 -149 109 -266 311 -297 514 -7 48 -10 542 -8 1585 3 1440 4 1518
22 1580 55 192 168 356 316 456 25 17 599 359 1275 760 914 541 1251 736 1310
757 131 46 244 56 375 33z m870 -4025 c5 -11 10 -65 10 -119 l0 -100 48 15
c65 20 168 21 188 1 14 -13 12 -26 -12 -127 -15 -61 -32 -119 -39 -128 -9 -12
-31 -16 -96 -17 -73 -1 -93 -6 -151 -34 -84 -41 -142 -105 -164 -180 -26 -88
-6 -150 56 -174 14 -5 75 -13 135 -18 150 -10 189 -24 250 -85 59 -58 74 -97
82 -211 14 -195 -70 -406 -225 -567 l-66 -67 3 -103 c2 -66 -2 -113 -10 -130
-14 -32 -151 -112 -174 -103 -12 4 -15 28 -15 114 l0 108 -67 -17 c-70 -18
-149 -22 -193 -10 -18 5 -26 15 -28 36 -3 33 43 224 57 238 5 5 56 10 113 11
95 1 109 4 170 34 120 59 192 165 192 285 1 66 0 70 -36 102 -38 36 -36 35
-224 53 -146 14 -200 46 -246 147 -18 41 -22 67 -22 150 0 180 70 347 206 490
l78 83 -6 89 c-10 129 0 151 89 207 40 25 75 46 79 46 4 0 12 -9 18 -19z
m1270 -1399 c0 -72 -3 -92 -17 -104 -16 -14 -548 -339 -599 -366 -12 -6 -24
-8 -28 -5 -3 3 -6 46 -6 93 0 69 3 90 16 101 32 26 609 369 622 369 9 0 12
-24 12 -88z"/>
</g>
</svg>
