<?xml version="1.0" standalone="no"?>
<!DOCTYPE svg PUBLIC "-//W3C//DTD SVG 20010904//EN"
 "http://www.w3.org/TR/2001/REC-SVG-20010904/DTD/svg10.dtd">
<svg version="1.0" xmlns="http://www.w3.org/2000/svg"
 width="512.000000pt" height="512.000000pt" viewBox="0 0 512.000000 512.000000"
 preserveAspectRatio="xMidYMid meet">

<g transform="translate(0.000000,512.000000) scale(0.100000,-0.100000)"
fill="#000000" stroke="none">
<path d="M2385 5114 c-802 -67 -1492 -465 -1940 -1118 -223 -326 -361 -687
-421 -1101 -24 -165 -24 -505 0 -670 96 -666 418 -1238 930 -1655 192 -155
497 -330 716 -409 587 -211 1193 -211 1780 0 47 17 153 64 236 104 722 353
1243 1039 1389 1833 119 644 -19 1327 -379 1865 -415 622 -1038 1019 -1768
1128 -129 19 -434 32 -543 23z m443 -125 c464 -50 931 -251 1302 -558 470
-391 793 -992 859 -1603 14 -125 14 -411 0 -536 -36 -335 -156 -687 -336 -991
-190 -318 -507 -637 -824 -829 -298 -179 -666 -305 -1001 -341 -125 -14 -411
-14 -536 0 -337 36 -727 171 -1012 349 -319 199 -602 482 -800 800 -180 287
-313 673 -349 1012 -14 125 -14 411 0 536 48 447 244 916 530 1269 81 100 262
281 362 362 345 279 822 481 1252 529 114 13 438 14 553 1z"/>
<path d="M2261 4734 c-578 -79 -1104 -390 -1460 -864 l-71 -95 132 -3 c73 -2
242 2 376 8 264 14 279 12 301 -37 17 -37 13 -69 -12 -98 -26 -31 -64 -40
-209 -50 -54 -4 -98 -9 -98 -12 0 -6 790 -2356 793 -2359 1 -2 110 320 241
714 l239 717 -170 465 -170 465 -104 12 c-57 6 -116 12 -130 12 -38 1 -79 43
-79 81 0 45 26 89 57 96 14 4 114 2 222 -5 251 -14 529 -14 804 1 l217 11 25
-23 c45 -42 41 -112 -8 -144 -14 -10 -70 -20 -153 -27 -71 -7 -131 -13 -133
-15 -2 -2 173 -530 390 -1173 216 -644 395 -1169 396 -1167 2 2 52 167 112
367 60 200 132 438 159 529 96 312 118 435 109 594 -12 204 -70 365 -223 617
-110 182 -149 271 -164 377 -31 221 117 427 322 450 l62 7 -57 50 c-307 265
-716 445 -1132 500 -144 19 -441 18 -584 -1z"/>
<path d="M4495 3377 c-1 -204 -3 -232 -29 -352 -31 -148 -11 -88 -459 -1380
-185 -533 -335 -971 -333 -972 2 -2 43 23 92 55 406 267 711 661 868 1120 82
240 116 444 116 709 0 339 -60 617 -201 928 -28 63 -52 115 -53 115 0 0 -1
-100 -1 -223z"/>
<path d="M531 3396 c-62 -140 -128 -397 -151 -586 -14 -121 -12 -407 4 -530
83 -615 403 -1148 904 -1507 85 -61 300 -189 306 -182 2 4 -1011 2784 -1032
2834 -8 17 -12 13 -31 -29z"/>
<path d="M2351 1643 c-134 -390 -281 -817 -327 -949 l-83 -241 92 -22 c51 -12
128 -29 172 -37 112 -21 464 -30 595 -15 194 23 475 93 475 119 0 18 -669
1852 -675 1852 -3 0 -116 -318 -249 -707z"/>
</g>
</svg>
